<svg xmlns="http://www.w3.org/2000/svg" width="87" height="48" viewBox="0 0 87 48">
  <g id="klarna" transform="translate(-1362 -6588)">
    <rect id="Rectangle_417" data-name="Rectangle 417" width="87" height="48" rx="7" transform="translate(1362 6588)" fill="#f2f2f2"/>
    <g id="Group_362" data-name="Group 362" transform="translate(1364 6603)">
      <g id="Group_26" data-name="Group 26" transform="translate(12.04)">
        <path id="Path_19" data-name="Path 19" d="M76.026,46.918a5.78,5.78,0,0,1,3.738-1.083c1.956.1,3.083.987,3.332,2.912a45.107,45.107,0,0,1,.088,8.76c-.092,1.362-1.569.392-2.382.623-.628.176-.907-.19-.9-.856.024-2.041.011-4.081.008-6.122,0-.441-.008-.884-.038-1.324a1.238,1.238,0,0,0-1.3-1.274c-1.665-.118-2.421.549-2.421,2.171,0,2.144-.02,4.287.012,6.428.012.744-.238,1.029-1,1.009-2.775-.069-2.337.363-2.358-2.278-.024-2.959.019-5.919-.02-8.876-.012-.8.239-1.135,1.044-1.044a4.436,4.436,0,0,0,1.019,0C75.512,45.884,75.969,46.074,76.026,46.918Z" transform="translate(-34.649 -41.806)" fill="#e27592" fill-rule="evenodd"/>
        <path id="Path_20" data-name="Path 20" d="M59.138,53.255c0,1.545-.018,2.77.007,3.993.012.635-.208,1.027-.879.888-.784-.163-1.777.54-2.35-.575-.113-.22-.349.038-.508.124a5.014,5.014,0,0,1-1.525.546c-2.969.5-5.2-1.041-4.4-4.88a2.9,2.9,0,0,1,2.4-2.1,14.282,14.282,0,0,1,2.73-.288c.4-.031,1.081.424,1.166-.486.1-1.089-.243-1.734-1.092-1.888a3.828,3.828,0,0,0-.813-.03c-.985.028-1.972.034-2.953.113-.618.052-.841-.137-.861-.772-.048-1.575-.079-1.59,1.539-1.851a10.993,10.993,0,0,1,4.751.051,3.455,3.455,0,0,1,2.691,3.1C59.242,50.654,59.076,52.118,59.138,53.255Zm-3.217.8c-.316-.3.368-1.052-.447-1.168a4.222,4.222,0,0,0-2.112.16c-.663.25-.764.819-.794,1.405-.022.473-.034,1,.492,1.24a2.884,2.884,0,0,0,2.458-.191C56.152,55.218,55.768,54.6,55.921,54.055Z" transform="translate(-30.744 -41.804)" fill="#e27592" fill-rule="evenodd"/>
        <path id="Path_21" data-name="Path 21" d="M96.935,53.618c0,1.224-.018,2.449.008,3.675.013.6-.193.955-.816.842-.824-.152-1.84.507-2.465-.583-.09-.157-.359.073-.53.166a4.7,4.7,0,0,1-1.635.544c-3.246.418-5-1.566-4.186-4.988a2.85,2.85,0,0,1,2.26-1.995,12.343,12.343,0,0,1,2.829-.314c.442-.024,1.2.376,1.187-.605-.01-.819-.086-1.612-1.117-1.77a6.7,6.7,0,0,0-1.121-.032c-.816.018-1.631.058-2.448.072-.393,0-1.03.293-.969-.453.056-.68-.57-1.689.6-1.971a12.48,12.48,0,0,1,5.063-.248c2.156.372,3.247,1.7,3.325,3.987.043,1.223.008,2.449.008,3.674Zm-3.235.513c-.22-.384.352-1.107-.4-1.241a4.007,4.007,0,0,0-2.115.145,1.169,1.169,0,0,0-.788,1.188c-.008.5-.173,1.088.355,1.4a2.781,2.781,0,0,0,2.456-.067C93.982,55.286,93.54,54.632,93.7,54.131Z" transform="translate(-37.035 -41.801)" fill="#e27592" fill-rule="evenodd"/>
        <path id="Path_22" data-name="Path 22" d="M27.039,49.3c0-2.276-.007-4.553,0-6.83.005-1.218.226-1.429,1.425-1.443C30.579,41,30.579,41,30.579,43.09q0,6.27,0,12.539c0,1.435-.232,1.685-1.628,1.677-2.194-.008-1.894.208-1.909-1.894C27.027,53.375,27.039,51.336,27.039,49.3Z" transform="translate(-27.035 -41.006)" fill="#e27592" fill-rule="evenodd"/>
        <path id="Path_23" data-name="Path 23" d="M43.518,49.084c0-2.377.02-4.757-.013-7.136-.01-.692.179-.942.913-.944,2.393-.007,2.393-.037,2.393,2.4,0,4.281-.018,8.563.017,12.846.006.81-.173,1.139-1.059,1.124-2.251-.035-2.251.006-2.251-2.271Q43.519,52.092,43.518,49.084Z" transform="translate(-29.776 -41.003)" fill="#e27592" fill-rule="evenodd"/>
        <path id="Path_24" data-name="Path 24" d="M63.388,51.945c0-1.7.028-3.4-.015-5.1-.017-.671.2-.935.867-.9.541.034,1.086,0,1.63.011.167,0,.45-.011.484.068.5,1.148,1.086.235,1.636.086.613-.168,1.405-.608,1.82-.117.457.542.139,1.432.141,2.171,0,.231-.188.339-.42.35-.2.01-.406.017-.609.038-1.9.2-2.226.553-2.226,2.431,0,2.072-.023,4.146.012,6.218.013.709-.226.964-.936.944-2.888-.09-2.327.406-2.38-2.336C63.367,54.526,63.388,53.236,63.388,51.945Z" transform="translate(-33.083 -41.797)" fill="#e27592" fill-rule="evenodd"/>
        <path id="Path_25" data-name="Path 25" d="M33,48.656c-.543.107-.577-.2-.558-.65a7.9,7.9,0,0,1,7.005-6.968c.493-.023.632.107.628.612C40.058,44.983,36.41,48.624,33,48.656Z" transform="translate(-27.934 -41.008)" fill="#e27592" fill-rule="evenodd"/>
        <path id="Path_26" data-name="Path 26" d="M40.07,58.511c.048.34-.048.548-.54.538-3.444-.068-7.037-3.649-7.105-7.074-.01-.532.163-.625.64-.587a7.923,7.923,0,0,1,6.974,6.65C40.055,58.171,40.057,58.309,40.07,58.511Z" transform="translate(-27.932 -42.73)" fill="#e27592" fill-rule="evenodd"/>
        <path id="Path_44" data-name="Path 44" d="M99.931,45.745c-.073.048-.212.092-.22.153-.017.147.1.23.245.254.247.039.4-.365.717-.114.134.108.577-.282.478.269-.017.1.018.564-.2.261-.256-.355-.663.665-.678-.148C100.269,46.16,100.289,45.867,99.931,45.745Z" transform="translate(-39.132 -41.792)" fill="#e27592" fill-rule="evenodd"/>
      </g>
    </g>
  </g>
</svg>
