<svg xmlns="http://www.w3.org/2000/svg" width="87" height="48" viewBox="0 0 87 48">
  <g id="paypal" transform="translate(-1557 -6588)">
    <rect id="Rectangle_419" data-name="Rectangle 419" width="87" height="48" rx="7" transform="translate(1557 6588)" fill="#f2f2f2"/>
    <g id="_4747500_paypal_payment_online_payment_icon" data-name="4747500_paypal_payment_online payment_icon" transform="translate(1574 6605)">
      <path id="Path_62" data-name="Path 62" d="M56.235,6.324H54.663a.9.9,0,0,0-.825.623c0,.014-.011.028-.014.042l-.1.465L51.567,17.2c-.05.22-.083.364-.093.4l0,.005a.515.515,0,0,0,.467.654l0,.007h1.628a.906.906,0,0,0,.824-.616c.005-.017.013-.032.017-.049l2.35-10.61h0A.522.522,0,0,0,56.235,6.324ZM48.19,15.9a4.6,4.6,0,0,1-.688.353,2.47,2.47,0,0,1-.914.2,2.032,2.032,0,0,1-1-.193.674.674,0,0,1-.342-.652,1.327,1.327,0,0,1,.254-.854,1.819,1.819,0,0,1,.748-.5,6.49,6.49,0,0,1,1.156-.259c.4-.05,1.19-.141,1.291-.142s.168-.056.123.212c-.02.117-.248,1.051-.353,1.476a.834.834,0,0,1-.278.363Zm3.1-6.569a6.7,6.7,0,0,0-3.131-.558,13.863,13.863,0,0,0-2.123.166c-.521.08-.575.093-.9.163a1.023,1.023,0,0,0-.769.811l-.214.878c-.121.562.2.539.342.495a9.106,9.106,0,0,1,1.042-.309,7.7,7.7,0,0,1,1.645-.221,4.351,4.351,0,0,1,1.59.224.8.8,0,0,1,.531.793.6.6,0,0,1-.029.248c-.029.069-.085.135-.253.158-1,.059-1.72.151-2.585.277a8.1,8.1,0,0,0-2.226.61A3.467,3.467,0,0,0,42.7,14.255a3.226,3.226,0,0,0-.5,1.826,2.143,2.143,0,0,0,.715,1.657,2.691,2.691,0,0,0,1.849.632,4.935,4.935,0,0,0,1.1-.1,5.537,5.537,0,0,0,.845-.289,4.391,4.391,0,0,0,.722-.4c.256-.17.433-.291.66-.44l.008.014-.064.281s0,0,0,.007l0,.005a.518.518,0,0,0,.468.654l0,.006h1.63a.033.033,0,0,0,.025-.009.912.912,0,0,0,.751-.657l1.28-5.513a3.2,3.2,0,0,0,.067-.452,3.531,3.531,0,0,0,.029-.421A1.843,1.843,0,0,0,51.292,9.331ZM43.583,8.075a2.674,2.674,0,0,0-.965-1.031,4.357,4.357,0,0,0-1.524-.558,12.27,12.27,0,0,0-2.062-.162l-3.667,0a.913.913,0,0,0-.835.667L32.063,17.7a.518.518,0,0,0,.526.665l1.76,0a.909.909,0,0,0,.841-.662l.595-2.6a.9.9,0,0,1,.842-.664h.5a8.308,8.308,0,0,0,5-1.316,4.12,4.12,0,0,0,1.787-3.471A3.377,3.377,0,0,0,43.583,8.075Zm-3.784,3.5a3.712,3.712,0,0,1-2.211.572h-.436a.517.517,0,0,1-.531-.665l.526-2.272a.9.9,0,0,1,.833-.662l.576,0a2.85,2.85,0,0,1,1.523.339,1.17,1.17,0,0,1,.51,1.043A1.923,1.923,0,0,1,39.8,11.576Z" transform="translate(-3.084 -6.324)" fill="#459bd8"/>
      <path id="Path_63" data-name="Path 63" d="M32.066,8.769a1.332,1.332,0,0,0-.978.6s-2.231,3.838-2.45,4.221c-.119.206-.24.075-.26,0-.016-.093-.691-4.194-.691-4.194a.855.855,0,0,0-.85-.612l-1.391,0a.464.464,0,0,0-.47.6s1.063,6.048,1.271,7.47c.1.787-.011.926-.011.926l-1.379,2.412c-.2.327-.091.6.242.6h1.612a1.305,1.305,0,0,0,.975-.594l6.2-10.525s.593-.9.046-.892C33.561,8.774,32.066,8.769,32.066,8.769ZM20.422,15.884a4.607,4.607,0,0,1-.687.353,2.487,2.487,0,0,1-.914.2,2.041,2.041,0,0,1-1-.192.675.675,0,0,1-.341-.651,1.326,1.326,0,0,1,.255-.852,1.81,1.81,0,0,1,.746-.5,6.48,6.48,0,0,1,1.155-.258c.4-.05,1.189-.141,1.29-.142s.167-.056.122.212c-.019.116-.248,1.05-.352,1.474a.845.845,0,0,1-.278.362Zm3.1-6.558a6.688,6.688,0,0,0-3.127-.557,13.815,13.815,0,0,0-2.12.166c-.522.079-.574.092-.9.163a1.022,1.022,0,0,0-.768.809l-.214.877c-.121.561.2.537.342.494a9.17,9.17,0,0,1,1.041-.309,7.764,7.764,0,0,1,1.643-.22,4.347,4.347,0,0,1,1.588.224.8.8,0,0,1,.529.792.586.586,0,0,1-.027.247c-.03.069-.086.135-.254.158-1,.06-1.716.151-2.582.277a8.108,8.108,0,0,0-2.223.609,3.457,3.457,0,0,0-1.5,1.187,3.207,3.207,0,0,0-.5,1.823,2.141,2.141,0,0,0,.714,1.654A2.688,2.688,0,0,0,17,18.351a4.973,4.973,0,0,0,1.1-.1,5.545,5.545,0,0,0,.843-.288,4.387,4.387,0,0,0,.722-.4c.255-.17.433-.29.661-.439l.007.014-.064.281s0,0,0,.008l0,0a.516.516,0,0,0,.467.653l0,.007h.029v0l1.347,0h.25a.03.03,0,0,0,.024-.009.914.914,0,0,0,.75-.655l1.279-5.5a3.152,3.152,0,0,0,.065-.45,3.461,3.461,0,0,0,.031-.42A1.84,1.84,0,0,0,23.52,9.325Zm-8-1.253a2.671,2.671,0,0,0-.964-1.03,4.352,4.352,0,0,0-1.522-.557,12.257,12.257,0,0,0-2.059-.161l-3.663,0a.911.911,0,0,0-.834.666L4.018,17.679a.517.517,0,0,0,.525.664l1.757,0a.908.908,0,0,0,.84-.661l.594-2.594a.9.9,0,0,1,.841-.663h.5a8.3,8.3,0,0,0,5-1.314,4.112,4.112,0,0,0,1.785-3.465A3.371,3.371,0,0,0,15.523,8.072Zm-3.779,3.5a3.708,3.708,0,0,1-2.208.571H9.1a.516.516,0,0,1-.531-.664l.525-2.268a.9.9,0,0,1,.832-.661l.576,0a2.847,2.847,0,0,1,1.521.338,1.168,1.168,0,0,1,.509,1.041A1.919,1.919,0,0,1,11.744,11.568Z" transform="translate(-3.999 -6.324)" fill="#283a86"/>
    </g>
  </g>
</svg>
