<svg xmlns="http://www.w3.org/2000/svg" width="87" height="48" viewBox="0 0 87 48">
  <g id="worldpay" transform="translate(-1459 -6588)">
    <rect id="Rectangle_418" data-name="Rectangle 418" width="87" height="48" rx="7" transform="translate(1459 6588)" fill="#f2f2f2"/>
    <path id="Union_9" data-name="Union 9" d="M13597.888,16064.328a5.814,5.814,0,0,1,.076-4.867,3.8,3.8,0,0,1,2.646-2.189,4.2,4.2,0,0,1,4.262.976,4.432,4.432,0,0,1,1.057,3.113,5.118,5.118,0,0,1-1.536,3.972,4.39,4.39,0,0,1-2.972,1.061A3.637,3.637,0,0,1,13597.888,16064.328Zm1.851-4.3a4.429,4.429,0,0,0-.008,3.448,1.9,1.9,0,0,0,1.79,1.25,2.012,2.012,0,0,0,1.923-.964,4.155,4.155,0,0,0,.569-2.085,12.278,12.278,0,0,0-.242-1.387,1.981,1.981,0,0,0-1.932-1.585l-.124,0A2.119,2.119,0,0,0,13599.738,16060.029Zm18.7,6.311a2.858,2.858,0,0,1-2.436-2.334,6.811,6.811,0,0,1,.024-3.694,4.384,4.384,0,0,1,4.827-3.177c.282.02.564.044.9.072V16054h1.895v12.174h-1.786c.024-.472.044-.936.064-1.447-.076.076-.129.1-.157.153a2.967,2.967,0,0,1-2.683,1.508A4.568,4.568,0,0,1,13618.439,16066.34Zm-.387-6.057a5.608,5.608,0,0,0-.057,3.267,1.541,1.541,0,0,0,1.193,1.214,1.6,1.6,0,0,0,1.754-.661,5.13,5.13,0,0,0,.718-1.617,12.087,12.087,0,0,0,.149-1.924.127.127,0,0,0-.04,0c0-.455-.012-.915,0-1.375.012-.262-.057-.415-.351-.428-.375-.016-.754-.072-1.129-.072h-.013A2.153,2.153,0,0,0,13618.053,16060.283Zm-31.182,5.92a8.134,8.134,0,0,0-1.371,0c-.3.016-.407-.105-.476-.375q-1.137-4.465-2.294-8.928c-.234-.911-.477-1.826-.73-2.814.674,0,1.3-.012,1.92.012.076,0,.193.178.222.291q1.1,4.452,2.182,8.907c.016.056.044.1.12.29.089-.443.138-.758.218-1.064q1.113-4.083,2.242-8.157a.463.463,0,0,1,.347-.267c.254-.016.517-.016.774-.016s.492,0,.738-.008c.29-.017.383.116.451.358q1.2,4.469,2.415,8.939c0,.028.037.049.081.1.774-3.145,1.536-6.25,2.307-9.37h1.951c-.29,1.148-.576,2.277-.867,3.4-.7,2.7-1.407,5.4-2.08,8.105-.121.476-.311.645-.8.6a9.691,9.691,0,0,0-1.419,0,.393.393,0,0,1-.464-.339c-.71-2.649-1.436-5.295-2.149-7.939a7.608,7.608,0,0,0-.311-1.105c-.036.17-.064.335-.108.5q-.943,3.618-1.888,7.227c-.1.366-.233.722-.294,1.093s-.213.577-.575.577A1.239,1.239,0,0,1,13586.871,16066.2Zm25.847-.028V16054h1.827v12.174Zm-5.682-.012v-8.843h1.811c-.036.512-.072,1.016-.1,1.527a2.756,2.756,0,0,1,2.831-1.722v1.771c-.081.04-.109.068-.134.068a2.048,2.048,0,0,0-2.383,2.085,26.791,26.791,0,0,0-.117,2.733c-.016.787,0,1.569,0,2.38Z" transform="translate(-12113.084 -9448.211)" fill="#989697"/>
    <path id="Union_10" data-name="Union 10" d="M13596.577,16070.608c.064-.517.133-1.036.2-1.585.3.024.561.044.823.072a1.91,1.91,0,0,0,2.017-1.028,10.709,10.709,0,0,0,.71-1.646,1.024,1.024,0,0,0-.077-.629q-1.5-4.061-3.017-8.111c-.036-.1-.064-.206-.125-.383.673,0,1.274-.024,1.867.016a.6.6,0,0,1,.392.363q.967,2.789,1.907,5.59c.024.073.049.142.1.295a2.97,2.97,0,0,0,.146-.295c.625-1.847,1.263-3.7,1.871-5.554a.527.527,0,0,1,.613-.424c.5.028,1.009.009,1.6.009-.193.524-.363.988-.536,1.451-1.065,2.815-2.118,5.639-3.2,8.45a10.769,10.769,0,0,1-.883,1.771,3.431,3.431,0,0,1-3.137,1.774A6.6,6.6,0,0,1,13596.577,16070.608Zm-5.038-4.271a2.115,2.115,0,0,1-1.759-1.6,2.5,2.5,0,0,1,.561-2.554,4.732,4.732,0,0,1,2.985-1.262c.5-.069,1-.093,1.532-.142.254-1.416-.351-2.178-1.738-2.162a6.229,6.229,0,0,0-1.307.162c-.428.1-.839.262-1.307.415-.121-.464-.242-.944-.4-1.553a20.118,20.118,0,0,1,2.355-.468,9.4,9.4,0,0,1,2.307.08,2.3,2.3,0,0,1,2.037,2.416c.061,2.13.036,4.26.049,6.389,0,.028-.024.053-.053.113h-1.723v-1.412c-.165.21-.246.315-.326.42a3.111,3.111,0,0,1-2.509,1.216A4.129,4.129,0,0,1,13591.539,16066.337Zm.657-3.734a1.212,1.212,0,0,0,.759,2.282,2.4,2.4,0,0,0,1.888-2.754c-.123,0-.245-.007-.367-.007A4.707,4.707,0,0,0,13592.2,16062.6Zm-10.2,3.562v-12.06c1.7-.021,3.408-.323,5.07.2a3.209,3.209,0,0,1,2.428,2.993,3.824,3.824,0,0,1-1.924,3.787,5.655,5.655,0,0,1-3.187.7c-.125,0-.25,0-.432,0v4.381Zm1.944-6.324a.41.41,0,0,0,.271.286,3.406,3.406,0,0,0,2.238-.384,2.254,2.254,0,0,0,1.009-2.371,1.864,1.864,0,0,0-1.6-1.642,17.111,17.111,0,0,0-1.932-.129C13583.933,16057.1,13583.924,16058.473,13583.944,16059.84Z" transform="translate(-12069.982 -9448.227)" fill="#e0202d"/>
    <path id="Path_60" data-name="Path 60" d="M120.426,52.221c.206-.606.4-1.218.634-1.813.062-.161.257-.266.391-.4a1.6,1.6,0,0,1,.2.507c.022.734.01,1.47.01,2.205h-.275V50.868l-.192-.038q-.372.98-.745,1.958l-.224.023q-.39-1.048-.777-2.1l-.123.02V52.7l-.158.03a1.2,1.2,0,0,1-.132-.362c-.017-.621-.027-1.243,0-1.865a1.481,1.481,0,0,1,.223-.49c.133.123.331.22.391.371.234.594.426,1.2.635,1.809Z" transform="translate(1415.555 6554.602)" fill="#9f9f9f" fill-rule="evenodd"/>
    <path id="Path_61" data-name="Path 61" d="M116.9,50.414l-.953-.163c0-.05.005-.1.007-.151h2.08c.007.039.014.076.02.115l-.9.208v2.334l-.256-.006Z" transform="translate(1416.002 6554.588)" fill="#9f9f9f" fill-rule="evenodd"/>
  </g>
</svg>
