<svg xmlns="http://www.w3.org/2000/svg" viewBox="0 0 348 48"><svg xmlns="http://www.w3.org/2000/svg" width="87" height="48" viewBox="0 0 87 48" x="0"><g id="paypal" transform="translate(-1557 -6588)"><rect id="Rectangle_419" data-name="Rectangle 419" width="87" height="48" rx="7" transform="translate(1557 6588)" fill="#f2f2f2" /><g id="_4747500_paypal_payment_online_payment_icon" data-name="4747500_paypal_payment_online payment_icon" transform="translate(1574 6605)"><path id="Path_62" data-name="Path 62" d="M56.235,6.324H54.663a.9.9,0,0,0-.825.623c0,.014-.011.028-.014.042l-.1.465L51.567,17.2c-.05.22-.083.364-.093.4l0,.005a.515.515,0,0,0,.467.654l0,.007h1.628a.906.906,0,0,0,.824-.616c.005-.017.013-.032.017-.049l2.35-10.61h0A.522.522,0,0,0,56.235,6.324ZM48.19,15.9a4.6,4.6,0,0,1-.688.353,2.47,2.47,0,0,1-.914.2,2.032,2.032,0,0,1-1-.193.674.674,0,0,1-.342-.652,1.327,1.327,0,0,1,.254-.854,1.819,1.819,0,0,1,.748-.5,6.49,6.49,0,0,1,1.156-.259c.4-.05,1.19-.141,1.291-.142s.168-.056.123.212c-.02.117-.248,1.051-.353,1.476a.834.834,0,0,1-.278.363Zm3.1-6.569a6.7,6.7,0,0,0-3.131-.558,13.863,13.863,0,0,0-2.123.166c-.521.08-.575.093-.9.163a1.023,1.023,0,0,0-.769.811l-.214.878c-.121.562.2.539.342.495a9.106,9.106,0,0,1,1.042-.309,7.7,7.7,0,0,1,1.645-.221,4.351,4.351,0,0,1,1.59.224.8.8,0,0,1,.531.793.6.6,0,0,1-.029.248c-.029.069-.085.135-.253.158-1,.059-1.72.151-2.585.277a8.1,8.1,0,0,0-2.226.61A3.467,3.467,0,0,0,42.7,14.255a3.226,3.226,0,0,0-.5,1.826,2.143,2.143,0,0,0,.715,1.657,2.691,2.691,0,0,0,1.849.632,4.935,4.935,0,0,0,1.1-.1,5.537,5.537,0,0,0,.845-.289,4.391,4.391,0,0,0,.722-.4c.256-.17.433-.291.66-.44l.008.014-.064.281s0,0,0,.007l0,.005a.518.518,0,0,0,.468.654l0,.006h1.63a.033.033,0,0,0,.025-.009.912.912,0,0,0,.751-.657l1.28-5.513a3.2,3.2,0,0,0,.067-.452,3.531,3.531,0,0,0,.029-.421A1.843,1.843,0,0,0,51.292,9.331ZM43.583,8.075a2.674,2.674,0,0,0-.965-1.031,4.357,4.357,0,0,0-1.524-.558,12.27,12.27,0,0,0-2.062-.162l-3.667,0a.913.913,0,0,0-.835.667L32.063,17.7a.518.518,0,0,0,.526.665l1.76,0a.909.909,0,0,0,.841-.662l.595-2.6a.9.9,0,0,1,.842-.664h.5a8.308,8.308,0,0,0,5-1.316,4.12,4.12,0,0,0,1.787-3.471A3.377,3.377,0,0,0,43.583,8.075Zm-3.784,3.5a3.712,3.712,0,0,1-2.211.572h-.436a.517.517,0,0,1-.531-.665l.526-2.272a.9.9,0,0,1,.833-.662l.576,0a2.85,2.85,0,0,1,1.523.339,1.17,1.17,0,0,1,.51,1.043A1.923,1.923,0,0,1,39.8,11.576Z" transform="translate(-3.084 -6.324)" fill="#459bd8" /><path id="Path_63" data-name="Path 63" d="M32.066,8.769a1.332,1.332,0,0,0-.978.6s-2.231,3.838-2.45,4.221c-.119.206-.24.075-.26,0-.016-.093-.691-4.194-.691-4.194a.855.855,0,0,0-.85-.612l-1.391,0a.464.464,0,0,0-.47.6s1.063,6.048,1.271,7.47c.1.787-.011.926-.011.926l-1.379,2.412c-.2.327-.091.6.242.6h1.612a1.305,1.305,0,0,0,.975-.594l6.2-10.525s.593-.9.046-.892C33.561,8.774,32.066,8.769,32.066,8.769ZM20.422,15.884a4.607,4.607,0,0,1-.687.353,2.487,2.487,0,0,1-.914.2,2.041,2.041,0,0,1-1-.192.675.675,0,0,1-.341-.651,1.326,1.326,0,0,1,.255-.852,1.81,1.81,0,0,1,.746-.5,6.48,6.48,0,0,1,1.155-.258c.4-.05,1.189-.141,1.29-.142s.167-.056.122.212c-.019.116-.248,1.05-.352,1.474a.845.845,0,0,1-.278.362Zm3.1-6.558a6.688,6.688,0,0,0-3.127-.557,13.815,13.815,0,0,0-2.12.166c-.522.079-.574.092-.9.163a1.022,1.022,0,0,0-.768.809l-.214.877c-.121.561.2.537.342.494a9.17,9.17,0,0,1,1.041-.309,7.764,7.764,0,0,1,1.643-.22,4.347,4.347,0,0,1,1.588.224.8.8,0,0,1,.529.792.586.586,0,0,1-.027.247c-.03.069-.086.135-.254.158-1,.06-1.716.151-2.582.277a8.108,8.108,0,0,0-2.223.609,3.457,3.457,0,0,0-1.5,1.187,3.207,3.207,0,0,0-.5,1.823,2.141,2.141,0,0,0,.714,1.654A2.688,2.688,0,0,0,17,18.351a4.973,4.973,0,0,0,1.1-.1,5.545,5.545,0,0,0,.843-.288,4.387,4.387,0,0,0,.722-.4c.255-.17.433-.29.661-.439l.007.014-.064.281s0,0,0,.008l0,0a.516.516,0,0,0,.467.653l0,.007h.029v0l1.347,0h.25a.03.03,0,0,0,.024-.009.914.914,0,0,0,.75-.655l1.279-5.5a3.152,3.152,0,0,0,.065-.45,3.461,3.461,0,0,0,.031-.42A1.84,1.84,0,0,0,23.52,9.325Zm-8-1.253a2.671,2.671,0,0,0-.964-1.03,4.352,4.352,0,0,0-1.522-.557,12.257,12.257,0,0,0-2.059-.161l-3.663,0a.911.911,0,0,0-.834.666L4.018,17.679a.517.517,0,0,0,.525.664l1.757,0a.908.908,0,0,0,.84-.661l.594-2.594a.9.9,0,0,1,.841-.663h.5a8.3,8.3,0,0,0,5-1.314,4.112,4.112,0,0,0,1.785-3.465A3.371,3.371,0,0,0,15.523,8.072Zm-3.779,3.5a3.708,3.708,0,0,1-2.208.571H9.1a.516.516,0,0,1-.531-.664l.525-2.268a.9.9,0,0,1,.832-.661l.576,0a2.847,2.847,0,0,1,1.521.338,1.168,1.168,0,0,1,.509,1.041A1.919,1.919,0,0,1,11.744,11.568Z" transform="translate(-3.999 -6.324)" fill="#283a86" /></g></g></svg><svg xmlns="http://www.w3.org/2000/svg" width="87" height="48" viewBox="0 0 87 48" x="87"><g id="visa" transform="translate(-1265 -6588)"><rect id="Rectangle_416" data-name="Rectangle 416" width="87" height="48" rx="7" transform="translate(1265 6588)" fill="#f2f2f2" /><g id="_294654_visa_icon" data-name="294654_visa_icon" transform="translate(1254.17 6421.136)"><g id="形状_1_3_" transform="translate(29.846 181.864)"><g id="形状_1" transform="translate(0 0)"><g id="Group_360" data-name="Group 360"><path id="Path_440" data-name="Path 440" d="M82.832,182.174l-2.817,17.311h4.507l2.817-17.311Zm-6.608,0-4.3,11.906-.508-2.564h0l-.112-.575a14.355,14.355,0,0,0-4-5.068,18.025,18.025,0,0,0-2.005-1.388l3.905,15h4.7l7.17-17.311Zm17.588,4.806c0-1.957,4.389-1.706,6.318-.643l.643-3.718a13.009,13.009,0,0,0-4.053-.755c-2.237,0-7.547.978-7.547,5.731,0,4.473,6.233,4.528,6.233,6.876s-5.591,1.929-7.436.447L87.3,198.8a12.623,12.623,0,0,0,5.088.978c3.075,0,7.715-1.593,7.715-5.926C100.1,189.355,93.812,188.936,93.812,186.98Zm18.39-4.806h-3.623a2.071,2.071,0,0,0-2.081,1.29l-6.721,16.021h4.7l.94-2.571h5.729l.529,2.571h4.138Zm-5.489,11.187,2.368-6.478,1.332,6.478Z" transform="translate(-65.303 -181.864)" fill="#005bac" fill-rule="evenodd" /></g></g></g><g id="形状_1_2_" transform="translate(25.009 182.241)"><g id="形状_1_1_" transform="translate(0 0)"><g id="Group_361" data-name="Group 361"><path id="Path_441" data-name="Path 441" d="M34.507,186.569a1.954,1.954,0,0,0-2.178-1.562H25.094l-.085.294a17.928,17.928,0,0,1,6.814,3.365,13.519,13.519,0,0,1,4.229,5.7Z" transform="translate(-25.009 -185.007)" fill="#f6ac1d" fill-rule="evenodd" /></g></g></g></g></g></svg><svg xmlns="http://www.w3.org/2000/svg" width="87" height="48" viewBox="0 0 87 48" x="174"><g id="worldpay" transform="translate(-1459 -6588)"><rect id="Rectangle_418" data-name="Rectangle 418" width="87" height="48" rx="7" transform="translate(1459 6588)" fill="#f2f2f2" /><path id="Union_9" data-name="Union 9" d="M13597.888,16064.328a5.814,5.814,0,0,1,.076-4.867,3.8,3.8,0,0,1,2.646-2.189,4.2,4.2,0,0,1,4.262.976,4.432,4.432,0,0,1,1.057,3.113,5.118,5.118,0,0,1-1.536,3.972,4.39,4.39,0,0,1-2.972,1.061A3.637,3.637,0,0,1,13597.888,16064.328Zm1.851-4.3a4.429,4.429,0,0,0-.008,3.448,1.9,1.9,0,0,0,1.79,1.25,2.012,2.012,0,0,0,1.923-.964,4.155,4.155,0,0,0,.569-2.085,12.278,12.278,0,0,0-.242-1.387,1.981,1.981,0,0,0-1.932-1.585l-.124,0A2.119,2.119,0,0,0,13599.738,16060.029Zm18.7,6.311a2.858,2.858,0,0,1-2.436-2.334,6.811,6.811,0,0,1,.024-3.694,4.384,4.384,0,0,1,4.827-3.177c.282.02.564.044.9.072V16054h1.895v12.174h-1.786c.024-.472.044-.936.064-1.447-.076.076-.129.1-.157.153a2.967,2.967,0,0,1-2.683,1.508A4.568,4.568,0,0,1,13618.439,16066.34Zm-.387-6.057a5.608,5.608,0,0,0-.057,3.267,1.541,1.541,0,0,0,1.193,1.214,1.6,1.6,0,0,0,1.754-.661,5.13,5.13,0,0,0,.718-1.617,12.087,12.087,0,0,0,.149-1.924.127.127,0,0,0-.04,0c0-.455-.012-.915,0-1.375.012-.262-.057-.415-.351-.428-.375-.016-.754-.072-1.129-.072h-.013A2.153,2.153,0,0,0,13618.053,16060.283Zm-31.182,5.92a8.134,8.134,0,0,0-1.371,0c-.3.016-.407-.105-.476-.375q-1.137-4.465-2.294-8.928c-.234-.911-.477-1.826-.73-2.814.674,0,1.3-.012,1.92.012.076,0,.193.178.222.291q1.1,4.452,2.182,8.907c.016.056.044.1.12.29.089-.443.138-.758.218-1.064q1.113-4.083,2.242-8.157a.463.463,0,0,1,.347-.267c.254-.016.517-.016.774-.016s.492,0,.738-.008c.29-.017.383.116.451.358q1.2,4.469,2.415,8.939c0,.028.037.049.081.1.774-3.145,1.536-6.25,2.307-9.37h1.951c-.29,1.148-.576,2.277-.867,3.4-.7,2.7-1.407,5.4-2.08,8.105-.121.476-.311.645-.8.6a9.691,9.691,0,0,0-1.419,0,.393.393,0,0,1-.464-.339c-.71-2.649-1.436-5.295-2.149-7.939a7.608,7.608,0,0,0-.311-1.105c-.036.17-.064.335-.108.5q-.943,3.618-1.888,7.227c-.1.366-.233.722-.294,1.093s-.213.577-.575.577A1.239,1.239,0,0,1,13586.871,16066.2Zm25.847-.028V16054h1.827v12.174Zm-5.682-.012v-8.843h1.811c-.036.512-.072,1.016-.1,1.527a2.756,2.756,0,0,1,2.831-1.722v1.771c-.081.04-.109.068-.134.068a2.048,2.048,0,0,0-2.383,2.085,26.791,26.791,0,0,0-.117,2.733c-.016.787,0,1.569,0,2.38Z" transform="translate(-12113.084 -9448.211)" fill="#989697" /><path id="Union_10" data-name="Union 10" d="M13596.577,16070.608c.064-.517.133-1.036.2-1.585.3.024.561.044.823.072a1.91,1.91,0,0,0,2.017-1.028,10.709,10.709,0,0,0,.71-1.646,1.024,1.024,0,0,0-.077-.629q-1.5-4.061-3.017-8.111c-.036-.1-.064-.206-.125-.383.673,0,1.274-.024,1.867.016a.6.6,0,0,1,.392.363q.967,2.789,1.907,5.59c.024.073.049.142.1.295a2.97,2.97,0,0,0,.146-.295c.625-1.847,1.263-3.7,1.871-5.554a.527.527,0,0,1,.613-.424c.5.028,1.009.009,1.6.009-.193.524-.363.988-.536,1.451-1.065,2.815-2.118,5.639-3.2,8.45a10.769,10.769,0,0,1-.883,1.771,3.431,3.431,0,0,1-3.137,1.774A6.6,6.6,0,0,1,13596.577,16070.608Zm-5.038-4.271a2.115,2.115,0,0,1-1.759-1.6,2.5,2.5,0,0,1,.561-2.554,4.732,4.732,0,0,1,2.985-1.262c.5-.069,1-.093,1.532-.142.254-1.416-.351-2.178-1.738-2.162a6.229,6.229,0,0,0-1.307.162c-.428.1-.839.262-1.307.415-.121-.464-.242-.944-.4-1.553a20.118,20.118,0,0,1,2.355-.468,9.4,9.4,0,0,1,2.307.08,2.3,2.3,0,0,1,2.037,2.416c.061,2.13.036,4.26.049,6.389,0,.028-.024.053-.053.113h-1.723v-1.412c-.165.21-.246.315-.326.42a3.111,3.111,0,0,1-2.509,1.216A4.129,4.129,0,0,1,13591.539,16066.337Zm.657-3.734a1.212,1.212,0,0,0,.759,2.282,2.4,2.4,0,0,0,1.888-2.754c-.123,0-.245-.007-.367-.007A4.707,4.707,0,0,0,13592.2,16062.6Zm-10.2,3.562v-12.06c1.7-.021,3.408-.323,5.07.2a3.209,3.209,0,0,1,2.428,2.993,3.824,3.824,0,0,1-1.924,3.787,5.655,5.655,0,0,1-3.187.7c-.125,0-.25,0-.432,0v4.381Zm1.944-6.324a.41.41,0,0,0,.271.286,3.406,3.406,0,0,0,2.238-.384,2.254,2.254,0,0,0,1.009-2.371,1.864,1.864,0,0,0-1.6-1.642,17.111,17.111,0,0,0-1.932-.129C13583.933,16057.1,13583.924,16058.473,13583.944,16059.84Z" transform="translate(-12069.982 -9448.227)" fill="#e0202d" /><path id="Path_60" data-name="Path 60" d="M120.426,52.221c.206-.606.4-1.218.634-1.813.062-.161.257-.266.391-.4a1.6,1.6,0,0,1,.2.507c.022.734.01,1.47.01,2.205h-.275V50.868l-.192-.038q-.372.98-.745,1.958l-.224.023q-.39-1.048-.777-2.1l-.123.02V52.7l-.158.03a1.2,1.2,0,0,1-.132-.362c-.017-.621-.027-1.243,0-1.865a1.481,1.481,0,0,1,.223-.49c.133.123.331.22.391.371.234.594.426,1.2.635,1.809Z" transform="translate(1415.555 6554.602)" fill="#9f9f9f" fill-rule="evenodd" /><path id="Path_61" data-name="Path 61" d="M116.9,50.414l-.953-.163c0-.05.005-.1.007-.151h2.08c.007.039.014.076.02.115l-.9.208v2.334l-.256-.006Z" transform="translate(1416.002 6554.588)" fill="#9f9f9f" fill-rule="evenodd" /></g></svg><svg xmlns="http://www.w3.org/2000/svg" width="87" height="48" viewBox="0 0 87 48" x="261"><g id="klarna" transform="translate(-1362 -6588)"><rect id="Rectangle_417" data-name="Rectangle 417" width="87" height="48" rx="7" transform="translate(1362 6588)" fill="#f2f2f2" /><g id="Group_362" data-name="Group 362" transform="translate(1364 6603)"><g id="Group_26" data-name="Group 26" transform="translate(12.04)"><path id="Path_19" data-name="Path 19" d="M76.026,46.918a5.78,5.78,0,0,1,3.738-1.083c1.956.1,3.083.987,3.332,2.912a45.107,45.107,0,0,1,.088,8.76c-.092,1.362-1.569.392-2.382.623-.628.176-.907-.19-.9-.856.024-2.041.011-4.081.008-6.122,0-.441-.008-.884-.038-1.324a1.238,1.238,0,0,0-1.3-1.274c-1.665-.118-2.421.549-2.421,2.171,0,2.144-.02,4.287.012,6.428.012.744-.238,1.029-1,1.009-2.775-.069-2.337.363-2.358-2.278-.024-2.959.019-5.919-.02-8.876-.012-.8.239-1.135,1.044-1.044a4.436,4.436,0,0,0,1.019,0C75.512,45.884,75.969,46.074,76.026,46.918Z" transform="translate(-34.649 -41.806)" fill="#e27592" fill-rule="evenodd" /><path id="Path_20" data-name="Path 20" d="M59.138,53.255c0,1.545-.018,2.77.007,3.993.012.635-.208,1.027-.879.888-.784-.163-1.777.54-2.35-.575-.113-.22-.349.038-.508.124a5.014,5.014,0,0,1-1.525.546c-2.969.5-5.2-1.041-4.4-4.88a2.9,2.9,0,0,1,2.4-2.1,14.282,14.282,0,0,1,2.73-.288c.4-.031,1.081.424,1.166-.486.1-1.089-.243-1.734-1.092-1.888a3.828,3.828,0,0,0-.813-.03c-.985.028-1.972.034-2.953.113-.618.052-.841-.137-.861-.772-.048-1.575-.079-1.59,1.539-1.851a10.993,10.993,0,0,1,4.751.051,3.455,3.455,0,0,1,2.691,3.1C59.242,50.654,59.076,52.118,59.138,53.255Zm-3.217.8c-.316-.3.368-1.052-.447-1.168a4.222,4.222,0,0,0-2.112.16c-.663.25-.764.819-.794,1.405-.022.473-.034,1,.492,1.24a2.884,2.884,0,0,0,2.458-.191C56.152,55.218,55.768,54.6,55.921,54.055Z" transform="translate(-30.744 -41.804)" fill="#e27592" fill-rule="evenodd" /><path id="Path_21" data-name="Path 21" d="M96.935,53.618c0,1.224-.018,2.449.008,3.675.013.6-.193.955-.816.842-.824-.152-1.84.507-2.465-.583-.09-.157-.359.073-.53.166a4.7,4.7,0,0,1-1.635.544c-3.246.418-5-1.566-4.186-4.988a2.85,2.85,0,0,1,2.26-1.995,12.343,12.343,0,0,1,2.829-.314c.442-.024,1.2.376,1.187-.605-.01-.819-.086-1.612-1.117-1.77a6.7,6.7,0,0,0-1.121-.032c-.816.018-1.631.058-2.448.072-.393,0-1.03.293-.969-.453.056-.68-.57-1.689.6-1.971a12.48,12.48,0,0,1,5.063-.248c2.156.372,3.247,1.7,3.325,3.987.043,1.223.008,2.449.008,3.674Zm-3.235.513c-.22-.384.352-1.107-.4-1.241a4.007,4.007,0,0,0-2.115.145,1.169,1.169,0,0,0-.788,1.188c-.008.5-.173,1.088.355,1.4a2.781,2.781,0,0,0,2.456-.067C93.982,55.286,93.54,54.632,93.7,54.131Z" transform="translate(-37.035 -41.801)" fill="#e27592" fill-rule="evenodd" /><path id="Path_22" data-name="Path 22" d="M27.039,49.3c0-2.276-.007-4.553,0-6.83.005-1.218.226-1.429,1.425-1.443C30.579,41,30.579,41,30.579,43.09q0,6.27,0,12.539c0,1.435-.232,1.685-1.628,1.677-2.194-.008-1.894.208-1.909-1.894C27.027,53.375,27.039,51.336,27.039,49.3Z" transform="translate(-27.035 -41.006)" fill="#e27592" fill-rule="evenodd" /><path id="Path_23" data-name="Path 23" d="M43.518,49.084c0-2.377.02-4.757-.013-7.136-.01-.692.179-.942.913-.944,2.393-.007,2.393-.037,2.393,2.4,0,4.281-.018,8.563.017,12.846.006.81-.173,1.139-1.059,1.124-2.251-.035-2.251.006-2.251-2.271Q43.519,52.092,43.518,49.084Z" transform="translate(-29.776 -41.003)" fill="#e27592" fill-rule="evenodd" /><path id="Path_24" data-name="Path 24" d="M63.388,51.945c0-1.7.028-3.4-.015-5.1-.017-.671.2-.935.867-.9.541.034,1.086,0,1.63.011.167,0,.45-.011.484.068.5,1.148,1.086.235,1.636.086.613-.168,1.405-.608,1.82-.117.457.542.139,1.432.141,2.171,0,.231-.188.339-.42.35-.2.01-.406.017-.609.038-1.9.2-2.226.553-2.226,2.431,0,2.072-.023,4.146.012,6.218.013.709-.226.964-.936.944-2.888-.09-2.327.406-2.38-2.336C63.367,54.526,63.388,53.236,63.388,51.945Z" transform="translate(-33.083 -41.797)" fill="#e27592" fill-rule="evenodd" /><path id="Path_25" data-name="Path 25" d="M33,48.656c-.543.107-.577-.2-.558-.65a7.9,7.9,0,0,1,7.005-6.968c.493-.023.632.107.628.612C40.058,44.983,36.41,48.624,33,48.656Z" transform="translate(-27.934 -41.008)" fill="#e27592" fill-rule="evenodd" /><path id="Path_26" data-name="Path 26" d="M40.07,58.511c.048.34-.048.548-.54.538-3.444-.068-7.037-3.649-7.105-7.074-.01-.532.163-.625.64-.587a7.923,7.923,0,0,1,6.974,6.65C40.055,58.171,40.057,58.309,40.07,58.511Z" transform="translate(-27.932 -42.73)" fill="#e27592" fill-rule="evenodd" /><path id="Path_44" data-name="Path 44" d="M99.931,45.745c-.073.048-.212.092-.22.153-.017.147.1.23.245.254.247.039.4-.365.717-.114.134.108.577-.282.478.269-.017.1.018.564-.2.261-.256-.355-.663.665-.678-.148C100.269,46.16,100.289,45.867,99.931,45.745Z" transform="translate(-39.132 -41.792)" fill="#e27592" fill-rule="evenodd" /></g></g></g></svg></svg>